<svg xmlns="http://www.w3.org/2000/svg" viewBox="0 0 700 300" font-family="-apple-system,BlinkMacSystemFont,'Segoe UI',Helvetica,Arial,sans-serif" role="img" aria-label="A loud waveform goes flat where hush is installed"><style>.bg{fill:#f2f1ec}.bg{stroke:rgba(20,20,19,.14)}.ink{fill:#161612}.mut{fill:#6d6a60}.wv{stroke:#8f8b80}.md{stroke:#8f8b80}.dv{stroke:#b5b1a4}.ac{stroke:#2a78d6}.gl{stroke:#2a78d6}@media(prefers-color-scheme:dark){.bg{fill:#141413}.bg{stroke:#30363d}.ink{fill:#ffffff}.mut{fill:#b9b9b1}.wv{stroke:#5a5a55}.md{stroke:#5a5a55}.dv{stroke:#3a3a37}.ac{stroke:#4c9be8}.gl{stroke:#4c9be8}}</style><rect class="bg" width="700" height="300" rx="14"/><line class="md" x1="24" x2="346" y1="105" y2="105" stroke-width="1.1" opacity=".55"/><line class="wv" x1="24.0" x2="24.0" y1="96.8" y2="113.3" stroke-width="2.2" stroke-linecap="round"/><line class="wv" x1="27.8" x2="27.8" y1="97.7" y2="112.3" stroke-width="2.2" stroke-linecap="round"/><line class="wv" x1="31.7" x2="31.7" y1="99.6" y2="110.4" stroke-width="2.2" stroke-linecap="round"/><line class="wv" x1="35.5" x2="35.5" y1="95.8" y2="114.2" stroke-width="2.2" stroke-linecap="round"/><line class="wv" x1="39.3" x2="39.3" y1="97.3" y2="112.7" stroke-width="2.2" stroke-linecap="round"/><line class="wv" x1="43.2" x2="43.2" y1="100.5" y2="109.5" stroke-width="2.2" stroke-linecap="round"/><line class="wv" x1="47.0" x2="47.0" y1="101.1" y2="108.9" stroke-width="2.2" stroke-linecap="round"/><line class="wv" x1="50.8" x2="50.8" y1="101.1" y2="108.9" stroke-width="2.2" stroke-linecap="round"/><line class="wv" x1="54.7" x2="54.7" y1="101.6" y2="108.4" stroke-width="2.2" stroke-linecap="round"/><line class="wv" x1="58.5" x2="58.5" y1="101.6" y2="108.4" stroke-width="2.2" stroke-linecap="round"/><line class="wv" x1="62.3" x2="62.3" y1="103.8" y2="106.2" stroke-width="2.2" stroke-linecap="round"/><line class="wv" x1="66.2" x2="66.2" y1="97.5" y2="112.5" stroke-width="2.2" stroke-linecap="round"/><line class="wv" x1="70.0" x2="70.0" y1="98.3" y2="111.8" stroke-width="2.2" stroke-linecap="round"/><line class="wv" x1="73.8" x2="73.8" y1="97.3" y2="112.7" stroke-width="2.2" stroke-linecap="round"/><line class="wv" x1="77.7" x2="77.7" y1="95.1" y2="114.9" stroke-width="2.2" stroke-linecap="round"/><line class="wv" x1="81.5" x2="81.5" y1="95.6" y2="114.4" stroke-width="2.2" stroke-linecap="round"/><line class="wv" x1="85.3" x2="85.3" y1="94.3" y2="115.7" stroke-width="2.2" stroke-linecap="round"/><line class="wv" x1="89.2" x2="89.2" y1="88.1" y2="121.9" stroke-width="2.2" stroke-linecap="round"/><line class="wv" x1="93.0" x2="93.0" y1="96.4" y2="113.6" stroke-width="2.2" stroke-linecap="round"/><line class="wv" x1="96.8" x2="96.8" y1="91.9" y2="118.1" stroke-width="2.2" stroke-linecap="round"/><line class="wv" x1="100.7" x2="100.7" y1="95.3" y2="114.8" stroke-width="2.2" stroke-linecap="round"/><line class="wv" x1="104.5" x2="104.5" y1="94.9" y2="115.1" stroke-width="2.2" stroke-linecap="round"/><line class="wv" x1="108.3" x2="108.3" y1="98.8" y2="111.2" stroke-width="2.2" stroke-linecap="round"/><line class="wv" x1="112.2" x2="112.2" y1="85.5" y2="124.5" stroke-width="2.2" stroke-linecap="round"/><line class="wv" x1="116.0" x2="116.0" y1="100.1" y2="109.9" stroke-width="2.2" stroke-linecap="round"/><line class="wv" x1="119.8" x2="119.8" y1="103.8" y2="106.2" stroke-width="2.2" stroke-linecap="round"/><line class="wv" x1="123.7" x2="123.7" y1="103.8" y2="106.2" stroke-width="2.2" stroke-linecap="round"/><line class="wv" x1="127.5" x2="127.5" y1="103.8" y2="106.2" stroke-width="2.2" stroke-linecap="round"/><line class="wv" x1="131.3" x2="131.3" y1="103.8" y2="106.2" stroke-width="2.2" stroke-linecap="round"/><line class="wv" x1="135.2" x2="135.2" y1="103.8" y2="106.2" stroke-width="2.2" stroke-linecap="round"/><line class="wv" x1="139.0" x2="139.0" y1="103.8" y2="106.2" stroke-width="2.2" stroke-linecap="round"/><line class="wv" x1="142.8" x2="142.8" y1="103.8" y2="106.2" stroke-width="2.2" stroke-linecap="round"/><line class="wv" x1="146.7" x2="146.7" y1="103.8" y2="106.2" stroke-width="2.2" stroke-linecap="round"/><line class="wv" x1="150.5" x2="150.5" y1="103.8" y2="106.2" stroke-width="2.2" stroke-linecap="round"/><line class="wv" x1="154.3" x2="154.3" y1="103.8" y2="106.2" stroke-width="2.2" stroke-linecap="round"/><line class="wv" x1="158.2" x2="158.2" y1="103.8" y2="106.2" stroke-width="2.2" stroke-linecap="round"/><line class="wv" x1="162.0" x2="162.0" y1="103.8" y2="106.2" stroke-width="2.2" stroke-linecap="round"/><line class="wv" x1="165.8" x2="165.8" y1="103.8" y2="106.2" stroke-width="2.2" stroke-linecap="round"/><line class="wv" x1="169.7" x2="169.7" y1="103.8" y2="106.2" stroke-width="2.2" stroke-linecap="round"/><line class="wv" x1="173.5" x2="173.5" y1="103.8" y2="106.2" stroke-width="2.2" stroke-linecap="round"/><line class="wv" x1="177.3" x2="177.3" y1="80.6" y2="129.4" stroke-width="2.2" stroke-linecap="round"/><line class="wv" x1="181.2" x2="181.2" y1="81.2" y2="128.8" stroke-width="2.2" stroke-linecap="round"/><line class="wv" x1="185.0" x2="185.0" y1="78.4" y2="131.6" stroke-width="2.2" stroke-linecap="round"/><line class="wv" x1="188.8" x2="188.8" y1="85.7" y2="124.3" stroke-width="2.2" stroke-linecap="round"/><line class="wv" x1="192.7" x2="192.7" y1="74.8" y2="135.2" stroke-width="2.2" stroke-linecap="round"/><line class="wv" x1="196.5" x2="196.5" y1="61.7" y2="148.3" stroke-width="2.2" stroke-linecap="round"/><line class="wv" x1="200.3" x2="200.3" y1="45.0" y2="165.0" stroke-width="2.2" stroke-linecap="round"/><line class="wv" x1="204.2" x2="204.2" y1="102.8" y2="107.3" stroke-width="2.2" stroke-linecap="round"/><line class="wv" x1="208.0" x2="208.0" y1="63.0" y2="147.0" stroke-width="2.2" stroke-linecap="round"/><line class="wv" x1="211.8" x2="211.8" y1="65.6" y2="144.4" stroke-width="2.2" stroke-linecap="round"/><line class="wv" x1="215.7" x2="215.7" y1="89.3" y2="120.8" stroke-width="2.2" stroke-linecap="round"/><line class="wv" x1="219.5" x2="219.5" y1="85.7" y2="124.3" stroke-width="2.2" stroke-linecap="round"/><line class="wv" x1="223.3" x2="223.3" y1="86.6" y2="123.4" stroke-width="2.2" stroke-linecap="round"/><line class="wv" x1="227.2" x2="227.2" y1="93.0" y2="117.0" stroke-width="2.2" stroke-linecap="round"/><line class="wv" x1="231.0" x2="231.0" y1="90.4" y2="119.6" stroke-width="2.2" stroke-linecap="round"/><line class="wv" x1="234.8" x2="234.8" y1="100.5" y2="109.5" stroke-width="2.2" stroke-linecap="round"/><line class="wv" x1="238.7" x2="238.7" y1="98.1" y2="111.9" stroke-width="2.2" stroke-linecap="round"/><line class="wv" x1="242.5" x2="242.5" y1="97.7" y2="112.3" stroke-width="2.2" stroke-linecap="round"/><line class="wv" x1="246.3" x2="246.3" y1="101.3" y2="108.8" stroke-width="2.2" stroke-linecap="round"/><line class="wv" x1="250.2" x2="250.2" y1="100.9" y2="109.1" stroke-width="2.2" stroke-linecap="round"/><line class="wv" x1="254.0" x2="254.0" y1="103.8" y2="106.2" stroke-width="2.2" stroke-linecap="round"/><line class="wv" x1="257.8" x2="257.8" y1="103.8" y2="106.2" stroke-width="2.2" stroke-linecap="round"/><line class="wv" x1="261.7" x2="261.7" y1="96.2" y2="113.8" stroke-width="2.2" stroke-linecap="round"/><line class="wv" x1="265.5" x2="265.5" y1="99.6" y2="110.4" stroke-width="2.2" stroke-linecap="round"/><line class="wv" x1="269.3" x2="269.3" y1="97.9" y2="112.1" stroke-width="2.2" stroke-linecap="round"/><line class="wv" x1="273.2" x2="273.2" y1="103.8" y2="106.2" stroke-width="2.2" stroke-linecap="round"/><line class="wv" x1="277.0" x2="277.0" y1="101.1" y2="108.9" stroke-width="2.2" stroke-linecap="round"/><line class="wv" x1="280.8" x2="280.8" y1="103.8" y2="106.2" stroke-width="2.2" stroke-linecap="round"/><line class="wv" x1="284.7" x2="284.7" y1="103.8" y2="106.2" stroke-width="2.2" stroke-linecap="round"/><line class="wv" x1="288.5" x2="288.5" y1="103.8" y2="106.2" stroke-width="2.2" stroke-linecap="round"/><line class="wv" x1="292.3" x2="292.3" y1="103.8" y2="106.2" stroke-width="2.2" stroke-linecap="round"/><line class="wv" x1="296.2" x2="296.2" y1="102.8" y2="107.3" stroke-width="2.2" stroke-linecap="round"/><line class="wv" x1="300.0" x2="300.0" y1="100.7" y2="109.3" stroke-width="2.2" stroke-linecap="round"/><line class="wv" x1="303.8" x2="303.8" y1="103.8" y2="106.2" stroke-width="2.2" stroke-linecap="round"/><line class="wv" x1="307.7" x2="307.7" y1="103.8" y2="106.2" stroke-width="2.2" stroke-linecap="round"/><line class="wv" x1="311.5" x2="311.5" y1="103.8" y2="106.2" stroke-width="2.2" stroke-linecap="round"/><line class="wv" x1="315.3" x2="315.3" y1="101.3" y2="108.8" stroke-width="2.2" stroke-linecap="round"/><line class="wv" x1="319.2" x2="319.2" y1="103.8" y2="106.2" stroke-width="2.2" stroke-linecap="round"/><line class="wv" x1="323.0" x2="323.0" y1="99.9" y2="110.1" stroke-width="2.2" stroke-linecap="round"/><line class="wv" x1="326.8" x2="326.8" y1="103.8" y2="106.2" stroke-width="2.2" stroke-linecap="round"/><line class="wv" x1="330.7" x2="330.7" y1="103.8" y2="106.2" stroke-width="2.2" stroke-linecap="round"/><line class="wv" x1="334.5" x2="334.5" y1="103.8" y2="106.2" stroke-width="2.2" stroke-linecap="round"/><line class="wv" x1="338.3" x2="338.3" y1="103.8" y2="106.2" stroke-width="2.2" stroke-linecap="round"/><line class="wv" x1="342.2" x2="342.2" y1="103.8" y2="106.2" stroke-width="2.2" stroke-linecap="round"/><line class="wv" x1="346.0" x2="346.0" y1="103.8" y2="106.2" stroke-width="2.2" stroke-linecap="round"/><line class="dv" x1="357" x2="357" y1="36" y2="174" stroke-width="1.5" stroke-dasharray="4 5"/><text class="mut" x="357" y="194" font-size="13" text-anchor="middle">hush installed</text><line class="gl" x1="368" x2="676" y1="105" y2="105" stroke-width="9" opacity=".22" stroke-linecap="round"/><line class="ac" x1="368" x2="676" y1="105" y2="105" stroke-width="3" stroke-linecap="round"/><line class="ac" x1="382.7" x2="382.7" y1="101.8" y2="108.2" stroke-width="2.4" stroke-linecap="round"/><line class="ac" x1="401.0" x2="401.0" y1="101.8" y2="108.2" stroke-width="2.4" stroke-linecap="round"/><line class="ac" x1="430.3" x2="430.3" y1="100.5" y2="109.5" stroke-width="2.4" stroke-linecap="round"/><line class="ac" x1="434.0" x2="434.0" y1="103.1" y2="106.9" stroke-width="2.4" stroke-linecap="round"/><text class="ink" x="24" y="248" font-size="54" font-weight="800" letter-spacing="-1">Quiet.</text><text class="mut" x="24" y="279" font-size="16.5">81 of 85 sessions: not one word before the answer.</text></svg>
