<svg xmlns="http://www.w3.org/2000/svg" viewBox="0 0 700 300" font-family="-apple-system,BlinkMacSystemFont,'Segoe UI',Helvetica,Arial,sans-serif" role="img" aria-label="A poster of the whole benchmark suite as one waveform, one spike per run — words of play-by-play before the answer. Left of the hush-installed divider, 32 sessions without the plugin spike to 93 words, and the loudest breaks in 7 separate times. Right of it, the same 32 sessions with hush run flat: every one of them speaks at most once, and nothing runs over 8 words. It reads: Quiet."><style>.bg{fill:#f2f1ec}.bg{stroke:rgba(20,20,19,.14)}.ink{fill:#161612}.mut{fill:#6d6a60}.wv{stroke:#8f8b80}.md{stroke:#8f8b80}.dv{stroke:#b5b1a4}.ac{stroke:#2a78d6}@media(prefers-color-scheme:dark){.bg{fill:#141413}.bg{stroke:#30363d}.ink{fill:#ffffff}.mut{fill:#b9b9b1}.wv{stroke:#5a5a55}.md{stroke:#5a5a55}.dv{stroke:#3a3a37}.ac{stroke:#4c9be8}}</style><rect class="bg" width="700" height="300" rx="14"/><line class="md" x1="24" x2="346" y1="105" y2="105" stroke-width="1.1" opacity=".55"/><line class="wv" x1="24.0" x2="24.0" y1="102.4" y2="107.6" stroke-width="3.4" stroke-linecap="round"/><line class="wv" x1="34.4" x2="34.4" y1="102.4" y2="107.6" stroke-width="3.4" stroke-linecap="round"/><line class="wv" x1="44.8" x2="44.8" y1="82.6" y2="127.4" stroke-width="3.4" stroke-linecap="round"/><line class="wv" x1="55.2" x2="55.2" y1="102.4" y2="107.6" stroke-width="3.4" stroke-linecap="round"/><line class="wv" x1="65.5" x2="65.5" y1="89.5" y2="120.5" stroke-width="3.4" stroke-linecap="round"/><line class="wv" x1="75.9" x2="75.9" y1="95.1" y2="114.9" stroke-width="3.4" stroke-linecap="round"/><line class="wv" x1="86.3" x2="86.3" y1="93.4" y2="116.6" stroke-width="3.4" stroke-linecap="round"/><line class="wv" x1="96.7" x2="96.7" y1="91.2" y2="118.8" stroke-width="3.4" stroke-linecap="round"/><line class="wv" x1="107.1" x2="107.1" y1="90.8" y2="119.2" stroke-width="3.4" stroke-linecap="round"/><line class="wv" x1="117.5" x2="117.5" y1="96.0" y2="114.0" stroke-width="3.4" stroke-linecap="round"/><line class="wv" x1="127.9" x2="127.9" y1="93.8" y2="116.2" stroke-width="3.4" stroke-linecap="round"/><line class="wv" x1="138.3" x2="138.3" y1="96.4" y2="113.6" stroke-width="3.4" stroke-linecap="round"/><line class="wv" x1="148.6" x2="148.6" y1="79.6" y2="130.4" stroke-width="3.4" stroke-linecap="round"/><line class="wv" x1="159.0" x2="159.0" y1="93.0" y2="117.0" stroke-width="3.4" stroke-linecap="round"/><line class="wv" x1="169.4" x2="169.4" y1="67.6" y2="142.4" stroke-width="3.4" stroke-linecap="round"/><line class="wv" x1="179.8" x2="179.8" y1="74.0" y2="136.0" stroke-width="3.4" stroke-linecap="round"/><line class="wv" x1="190.2" x2="190.2" y1="84.8" y2="125.2" stroke-width="3.4" stroke-linecap="round"/><line class="wv" x1="200.6" x2="200.6" y1="78.8" y2="131.2" stroke-width="3.4" stroke-linecap="round"/><line class="wv" x1="211.0" x2="211.0" y1="87.4" y2="122.6" stroke-width="3.4" stroke-linecap="round"/><line class="wv" x1="221.4" x2="221.4" y1="65.0" y2="145.0" stroke-width="3.4" stroke-linecap="round"/><line class="wv" x1="231.7" x2="231.7" y1="92.1" y2="117.9" stroke-width="3.4" stroke-linecap="round"/><line class="wv" x1="242.1" x2="242.1" y1="90.8" y2="119.2" stroke-width="3.4" stroke-linecap="round"/><line class="wv" x1="252.5" x2="252.5" y1="100.3" y2="109.7" stroke-width="3.4" stroke-linecap="round"/><line class="wv" x1="262.9" x2="262.9" y1="98.1" y2="111.9" stroke-width="3.4" stroke-linecap="round"/><line class="wv" x1="273.3" x2="273.3" y1="89.1" y2="120.9" stroke-width="3.4" stroke-linecap="round"/><line class="wv" x1="283.7" x2="283.7" y1="87.8" y2="122.2" stroke-width="3.4" stroke-linecap="round"/><line class="wv" x1="294.1" x2="294.1" y1="96.8" y2="113.2" stroke-width="3.4" stroke-linecap="round"/><line class="wv" x1="304.5" x2="304.5" y1="102.4" y2="107.6" stroke-width="3.4" stroke-linecap="round"/><line class="wv" x1="314.8" x2="314.8" y1="101.6" y2="108.4" stroke-width="3.4" stroke-linecap="round"/><line class="wv" x1="325.2" x2="325.2" y1="101.6" y2="108.4" stroke-width="3.4" stroke-linecap="round"/><line class="wv" x1="335.6" x2="335.6" y1="101.6" y2="108.4" stroke-width="3.4" stroke-linecap="round"/><line class="wv" x1="346.0" x2="346.0" y1="95.1" y2="114.9" stroke-width="3.4" stroke-linecap="round"/><line class="dv" x1="357" x2="357" y1="36" y2="174" stroke-width="1.5" stroke-dasharray="4 5"/><text class="mut" x="357" y="194" font-size="13" text-anchor="middle">hush installed</text><line class="ac" x1="368" x2="676" y1="105" y2="105" stroke-width="3" stroke-linecap="round"/><line class="ac" x1="377.9" x2="377.9" y1="102.0" y2="108.0" stroke-width="3.4" stroke-linecap="round"/><line class="ac" x1="387.9" x2="387.9" y1="101.6" y2="108.4" stroke-width="3.4" stroke-linecap="round"/><line class="ac" x1="407.7" x2="407.7" y1="102.0" y2="108.0" stroke-width="3.4" stroke-linecap="round"/><line class="ac" x1="427.6" x2="427.6" y1="102.0" y2="108.0" stroke-width="3.4" stroke-linecap="round"/><line class="ac" x1="437.5" x2="437.5" y1="102.0" y2="108.0" stroke-width="3.4" stroke-linecap="round"/><line class="ac" x1="487.2" x2="487.2" y1="101.6" y2="108.4" stroke-width="3.4" stroke-linecap="round"/><line class="ac" x1="507.1" x2="507.1" y1="101.6" y2="108.4" stroke-width="3.4" stroke-linecap="round"/><line class="ac" x1="517.0" x2="517.0" y1="101.6" y2="108.4" stroke-width="3.4" stroke-linecap="round"/><line class="ac" x1="527.0" x2="527.0" y1="102.4" y2="107.6" stroke-width="3.4" stroke-linecap="round"/><line class="ac" x1="536.9" x2="536.9" y1="102.4" y2="107.6" stroke-width="3.4" stroke-linecap="round"/><line class="ac" x1="546.8" x2="546.8" y1="103.3" y2="106.7" stroke-width="3.4" stroke-linecap="round"/><line class="ac" x1="556.8" x2="556.8" y1="101.6" y2="108.4" stroke-width="3.4" stroke-linecap="round"/><line class="ac" x1="576.6" x2="576.6" y1="103.3" y2="106.7" stroke-width="3.4" stroke-linecap="round"/><line class="ac" x1="586.6" x2="586.6" y1="102.4" y2="107.6" stroke-width="3.4" stroke-linecap="round"/><line class="ac" x1="596.5" x2="596.5" y1="102.4" y2="107.6" stroke-width="3.4" stroke-linecap="round"/><text class="ink" x="24" y="248" font-size="54" font-weight="800" letter-spacing="-1">Quiet.</text><text class="mut" x="24" y="279" font-size="16.5">32 of 32 sessions: one message at most before the answer.</text></svg>